<mxfile host="Electron" agent="Mozilla/5.0 (X11; Linux x86_64) AppleWebKit/537.36 (KHTML, like Gecko) draw.io/27.0.9 Chrome/134.0.6998.205 Electron/35.4.0 Safari/537.36" version="27.0.9" pages="2">
  <diagram name="SchÃ¨ma_Global" id="vv0vqMFKTt0ozWe6aofz">
    <mxGraphModel dx="1189" dy="1032" grid="1" gridSize="10" guides="1" tooltips="1" connect="1" arrows="1" fold="1" page="1" pageScale="1" pageWidth="1169" pageHeight="827" math="0" shadow="0">
      <root>
        <mxCell id="0" />
        <mxCell id="1" parent="0" />
        <mxCell id="hyoDHbhCKNFFwaJ086cp-6" value="" style="edgeStyle=orthogonalEdgeStyle;rounded=0;orthogonalLoop=1;jettySize=auto;html=1;" parent="1" source="hyoDHbhCKNFFwaJ086cp-1" target="hyoDHbhCKNFFwaJ086cp-5" edge="1">
          <mxGeometry relative="1" as="geometry" />
        </mxCell>
        <mxCell id="hyoDHbhCKNFFwaJ086cp-1" value="Yaml&lt;div&gt;File&amp;nbsp;&lt;/div&gt;&lt;div&gt;Jobs&lt;/div&gt;" style="shape=parallelogram;html=1;strokeWidth=2;perimeter=parallelogramPerimeter;whiteSpace=wrap;rounded=1;arcSize=12;size=0.23;fillColor=#fff2cc;strokeColor=#d6b656;" parent="1" vertex="1">
          <mxGeometry x="20" y="650" width="100" height="60" as="geometry" />
        </mxCell>
        <mxCell id="hyoDHbhCKNFFwaJ086cp-2" value="Destination&lt;div&gt;Database&lt;/div&gt;" style="strokeWidth=2;html=1;shape=mxgraph.flowchart.database;whiteSpace=wrap;fillColor=#d5e8d4;strokeColor=#82b366;" parent="1" vertex="1">
          <mxGeometry x="930" y="450" width="90" height="100" as="geometry" />
        </mxCell>
        <mxCell id="hyoDHbhCKNFFwaJ086cp-15" style="edgeStyle=orthogonalEdgeStyle;rounded=0;orthogonalLoop=1;jettySize=auto;html=1;entryX=0;entryY=0.5;entryDx=0;entryDy=0;fillColor=#f8cecc;strokeColor=#b85450;" parent="1" source="hyoDHbhCKNFFwaJ086cp-3" target="hyoDHbhCKNFFwaJ086cp-11" edge="1">
          <mxGeometry relative="1" as="geometry" />
        </mxCell>
        <mxCell id="hyoDHbhCKNFFwaJ086cp-17" style="edgeStyle=orthogonalEdgeStyle;rounded=0;orthogonalLoop=1;jettySize=auto;html=1;entryX=0;entryY=0.5;entryDx=0;entryDy=0;fillColor=#f8cecc;strokeColor=#b85450;" parent="1" source="hyoDHbhCKNFFwaJ086cp-3" target="hyoDHbhCKNFFwaJ086cp-8" edge="1">
          <mxGeometry relative="1" as="geometry" />
        </mxCell>
        <mxCell id="hyoDHbhCKNFFwaJ086cp-3" value="Files" style="strokeWidth=2;html=1;shape=mxgraph.flowchart.multi-document;whiteSpace=wrap;fillColor=#fff2cc;strokeColor=#d6b656;" parent="1" vertex="1">
          <mxGeometry x="20" y="230" width="88" height="60" as="geometry" />
        </mxCell>
        <mxCell id="hyoDHbhCKNFFwaJ086cp-9" value="" style="edgeStyle=orthogonalEdgeStyle;rounded=0;orthogonalLoop=1;jettySize=auto;html=1;fillColor=#f8cecc;strokeColor=#b85450;" parent="1" source="hyoDHbhCKNFFwaJ086cp-5" target="hyoDHbhCKNFFwaJ086cp-8" edge="1">
          <mxGeometry relative="1" as="geometry" />
        </mxCell>
        <mxCell id="hyoDHbhCKNFFwaJ086cp-14" value="" style="edgeStyle=orthogonalEdgeStyle;rounded=0;orthogonalLoop=1;jettySize=auto;html=1;" parent="1" source="hyoDHbhCKNFFwaJ086cp-5" target="hyoDHbhCKNFFwaJ086cp-13" edge="1">
          <mxGeometry relative="1" as="geometry" />
        </mxCell>
        <mxCell id="hyoDHbhCKNFFwaJ086cp-5" value="Read and check file jobs" style="whiteSpace=wrap;html=1;strokeWidth=2;rounded=1;arcSize=12;fillColor=#d5e8d4;strokeColor=#82b366;" parent="1" vertex="1">
          <mxGeometry x="220" y="650" width="120" height="60" as="geometry" />
        </mxCell>
        <mxCell id="hyoDHbhCKNFFwaJ086cp-12" value="" style="edgeStyle=orthogonalEdgeStyle;rounded=0;orthogonalLoop=1;jettySize=auto;html=1;fillColor=#f8cecc;strokeColor=#b85450;" parent="1" source="hyoDHbhCKNFFwaJ086cp-8" target="hyoDHbhCKNFFwaJ086cp-11" edge="1">
          <mxGeometry relative="1" as="geometry" />
        </mxCell>
        <mxCell id="hyoDHbhCKNFFwaJ086cp-8" value="Check path files data or database Inbound" style="whiteSpace=wrap;html=1;strokeWidth=2;rounded=1;arcSize=12;fillColor=#f8cecc;strokeColor=#b85450;" parent="1" vertex="1">
          <mxGeometry x="220" y="370" width="120" height="60" as="geometry" />
        </mxCell>
        <mxCell id="hyoDHbhCKNFFwaJ086cp-11" value="Check file integrity (option)" style="whiteSpace=wrap;html=1;strokeWidth=2;rounded=1;arcSize=12;fillColor=#f8cecc;strokeColor=#b85450;" parent="1" vertex="1">
          <mxGeometry x="220" y="170" width="120" height="60" as="geometry" />
        </mxCell>
        <mxCell id="hyoDHbhCKNFFwaJ086cp-18" style="edgeStyle=orthogonalEdgeStyle;rounded=0;orthogonalLoop=1;jettySize=auto;html=1;fillColor=#f8cecc;strokeColor=#b85450;entryX=0.5;entryY=1;entryDx=0;entryDy=0;entryPerimeter=0;" parent="1" target="hyoDHbhCKNFFwaJ086cp-2" edge="1">
          <mxGeometry relative="1" as="geometry">
            <mxPoint x="570" y="680" as="sourcePoint" />
            <Array as="points">
              <mxPoint x="600" y="680" />
              <mxPoint x="600" y="610" />
              <mxPoint x="975" y="610" />
            </Array>
          </mxGeometry>
        </mxCell>
        <mxCell id="hyoDHbhCKNFFwaJ086cp-13" value="Che&lt;span style=&quot;background-color: transparent; color: light-dark(rgb(0, 0, 0), rgb(255, 255, 255));&quot;&gt;ck database OutBound or path OutBound&lt;/span&gt;" style="whiteSpace=wrap;html=1;strokeWidth=2;rounded=1;arcSize=12;fillColor=#f8cecc;strokeColor=#b85450;" parent="1" vertex="1">
          <mxGeometry x="441" y="650" width="120" height="60" as="geometry" />
        </mxCell>
        <mxCell id="hyoDHbhCKNFFwaJ086cp-25" value="" style="edgeStyle=orthogonalEdgeStyle;rounded=0;orthogonalLoop=1;jettySize=auto;html=1;" parent="1" source="hyoDHbhCKNFFwaJ086cp-19" target="hyoDHbhCKNFFwaJ086cp-24" edge="1">
          <mxGeometry relative="1" as="geometry" />
        </mxCell>
        <mxCell id="hyoDHbhCKNFFwaJ086cp-19" value="If OK" style="strokeWidth=2;html=1;shape=mxgraph.flowchart.decision;whiteSpace=wrap;fillColor=#dae8fc;strokeColor=#6c8ebf;" parent="1" vertex="1">
          <mxGeometry x="451" y="419" width="100" height="100" as="geometry" />
        </mxCell>
        <mxCell id="hyoDHbhCKNFFwaJ086cp-20" style="edgeStyle=orthogonalEdgeStyle;rounded=0;orthogonalLoop=1;jettySize=auto;html=1;entryX=0;entryY=0.5;entryDx=0;entryDy=0;entryPerimeter=0;fillColor=#f8cecc;strokeColor=#b85450;" parent="1" source="hyoDHbhCKNFFwaJ086cp-11" target="hyoDHbhCKNFFwaJ086cp-19" edge="1">
          <mxGeometry relative="1" as="geometry" />
        </mxCell>
        <mxCell id="hyoDHbhCKNFFwaJ086cp-21" style="edgeStyle=orthogonalEdgeStyle;rounded=0;orthogonalLoop=1;jettySize=auto;html=1;entryX=0;entryY=0.5;entryDx=0;entryDy=0;entryPerimeter=0;fillColor=#f8cecc;strokeColor=#b85450;" parent="1" source="hyoDHbhCKNFFwaJ086cp-8" target="hyoDHbhCKNFFwaJ086cp-19" edge="1">
          <mxGeometry relative="1" as="geometry" />
        </mxCell>
        <mxCell id="hyoDHbhCKNFFwaJ086cp-22" style="edgeStyle=orthogonalEdgeStyle;rounded=0;orthogonalLoop=1;jettySize=auto;html=1;entryX=0.5;entryY=1;entryDx=0;entryDy=0;entryPerimeter=0;fillColor=#f8cecc;strokeColor=#b85450;" parent="1" source="hyoDHbhCKNFFwaJ086cp-13" target="hyoDHbhCKNFFwaJ086cp-19" edge="1">
          <mxGeometry relative="1" as="geometry" />
        </mxCell>
        <mxCell id="hyoDHbhCKNFFwaJ086cp-32" value="Vertical Container" style="swimlane;whiteSpace=wrap;html=1;" parent="1" vertex="1">
          <mxGeometry x="710" y="60" width="380" height="210" as="geometry" />
        </mxCell>
        <mxCell id="hyoDHbhCKNFFwaJ086cp-27" value="Transform/ Filter / Script" style="whiteSpace=wrap;html=1;strokeWidth=2;fillColor=#f5f5f5;fontColor=#333333;strokeColor=#666666;" parent="hyoDHbhCKNFFwaJ086cp-32" vertex="1">
          <mxGeometry x="110" y="40" width="120" height="60" as="geometry" />
        </mxCell>
        <mxCell id="hyoDHbhCKNFFwaJ086cp-29" value="Load" style="whiteSpace=wrap;html=1;strokeWidth=2;fillColor=#f5f5f5;fontColor=#333333;strokeColor=#666666;" parent="hyoDHbhCKNFFwaJ086cp-32" vertex="1">
          <mxGeometry x="240" y="130" width="120" height="60" as="geometry" />
        </mxCell>
        <mxCell id="hyoDHbhCKNFFwaJ086cp-30" value="" style="edgeStyle=orthogonalEdgeStyle;rounded=0;orthogonalLoop=1;jettySize=auto;html=1;" parent="hyoDHbhCKNFFwaJ086cp-32" source="hyoDHbhCKNFFwaJ086cp-27" target="hyoDHbhCKNFFwaJ086cp-29" edge="1">
          <mxGeometry relative="1" as="geometry" />
        </mxCell>
        <mxCell id="hyoDHbhCKNFFwaJ086cp-24" value="Extract data" style="whiteSpace=wrap;html=1;strokeWidth=2;fillColor=#f5f5f5;fontColor=#333333;strokeColor=#666666;" parent="hyoDHbhCKNFFwaJ086cp-32" vertex="1">
          <mxGeometry x="10" y="130" width="120" height="60" as="geometry" />
        </mxCell>
        <mxCell id="hyoDHbhCKNFFwaJ086cp-28" value="" style="edgeStyle=orthogonalEdgeStyle;rounded=0;orthogonalLoop=1;jettySize=auto;html=1;entryX=0;entryY=0.5;entryDx=0;entryDy=0;" parent="hyoDHbhCKNFFwaJ086cp-32" source="hyoDHbhCKNFFwaJ086cp-24" target="hyoDHbhCKNFFwaJ086cp-27" edge="1">
          <mxGeometry relative="1" as="geometry" />
        </mxCell>
        <mxCell id="hyoDHbhCKNFFwaJ086cp-34" style="edgeStyle=orthogonalEdgeStyle;rounded=0;orthogonalLoop=1;jettySize=auto;html=1;entryX=0;entryY=0.5;entryDx=0;entryDy=0;fillColor=#f8cecc;strokeColor=#b85450;" parent="1" source="hyoDHbhCKNFFwaJ086cp-33" target="hyoDHbhCKNFFwaJ086cp-11" edge="1">
          <mxGeometry relative="1" as="geometry" />
        </mxCell>
        <mxCell id="hyoDHbhCKNFFwaJ086cp-35" style="edgeStyle=orthogonalEdgeStyle;rounded=0;orthogonalLoop=1;jettySize=auto;html=1;entryX=0;entryY=0.5;entryDx=0;entryDy=0;fillColor=#f8cecc;strokeColor=#b85450;" parent="1" source="hyoDHbhCKNFFwaJ086cp-33" target="hyoDHbhCKNFFwaJ086cp-8" edge="1">
          <mxGeometry relative="1" as="geometry" />
        </mxCell>
        <mxCell id="hyoDHbhCKNFFwaJ086cp-33" value="Source&lt;br&gt;&lt;div&gt;Database&lt;/div&gt;" style="strokeWidth=2;html=1;shape=mxgraph.flowchart.database;whiteSpace=wrap;fillColor=#d5e8d4;strokeColor=#82b366;" parent="1" vertex="1">
          <mxGeometry x="25" y="310" width="90" height="100" as="geometry" />
        </mxCell>
        <mxCell id="hyoDHbhCKNFFwaJ086cp-36" value="Path OutGoing" style="strokeWidth=2;html=1;shape=mxgraph.flowchart.document2;whiteSpace=wrap;size=0.25;fillColor=#fff2cc;strokeColor=#d6b656;" parent="1" vertex="1">
          <mxGeometry x="989" y="670" width="100" height="60" as="geometry" />
        </mxCell>
        <mxCell id="hyoDHbhCKNFFwaJ086cp-37" style="edgeStyle=orthogonalEdgeStyle;rounded=0;orthogonalLoop=1;jettySize=auto;html=1;entryX=0;entryY=0.5;entryDx=0;entryDy=0;entryPerimeter=0;fillColor=#f8cecc;strokeColor=#b85450;" parent="1" source="hyoDHbhCKNFFwaJ086cp-13" target="hyoDHbhCKNFFwaJ086cp-36" edge="1">
          <mxGeometry relative="1" as="geometry" />
        </mxCell>
        <mxCell id="hyoDHbhCKNFFwaJ086cp-38" value="SQL PostProcessing" style="rounded=1;whiteSpace=wrap;html=1;fillColor=#e1d5e7;strokeColor=#9673a6;" parent="1" vertex="1">
          <mxGeometry x="950" y="310" width="120" height="60" as="geometry" />
        </mxCell>
        <mxCell id="hyoDHbhCKNFFwaJ086cp-39" style="edgeStyle=orthogonalEdgeStyle;rounded=0;orthogonalLoop=1;jettySize=auto;html=1;entryX=0.5;entryY=0;entryDx=0;entryDy=0;" parent="1" source="hyoDHbhCKNFFwaJ086cp-29" target="hyoDHbhCKNFFwaJ086cp-38" edge="1">
          <mxGeometry relative="1" as="geometry" />
        </mxCell>
        <mxCell id="hyoDHbhCKNFFwaJ086cp-40" style="edgeStyle=orthogonalEdgeStyle;rounded=0;orthogonalLoop=1;jettySize=auto;html=1;entryX=0.5;entryY=0;entryDx=0;entryDy=0;entryPerimeter=0;" parent="1" source="hyoDHbhCKNFFwaJ086cp-38" target="hyoDHbhCKNFFwaJ086cp-2" edge="1">
          <mxGeometry relative="1" as="geometry" />
        </mxCell>
        <mxCell id="hyoDHbhCKNFFwaJ086cp-41" style="edgeStyle=orthogonalEdgeStyle;rounded=0;orthogonalLoop=1;jettySize=auto;html=1;entryX=0.5;entryY=0;entryDx=0;entryDy=0;entryPerimeter=0;" parent="1" target="hyoDHbhCKNFFwaJ086cp-36" edge="1">
          <mxGeometry relative="1" as="geometry">
            <mxPoint x="1053" y="370" as="sourcePoint" />
            <mxPoint x="1063" y="670" as="targetPoint" />
            <Array as="points">
              <mxPoint x="1053" y="520" />
              <mxPoint x="1039" y="520" />
            </Array>
          </mxGeometry>
        </mxCell>
        <mxCell id="hyoDHbhCKNFFwaJ086cp-42" value="CSV" style="text;html=1;align=center;verticalAlign=middle;whiteSpace=wrap;rounded=0;fillColor=#fff2cc;strokeColor=#d6b656;" parent="1" vertex="1">
          <mxGeometry x="1029" y="727" width="60" height="33" as="geometry" />
        </mxCell>
        <mxCell id="hyoDHbhCKNFFwaJ086cp-43" value="PostGresQL&lt;div&gt;Mysql/MariaDB&lt;/div&gt;&lt;div&gt;Oracle&lt;/div&gt;&lt;div&gt;SQLServer&lt;/div&gt;" style="text;html=1;align=center;verticalAlign=middle;whiteSpace=wrap;rounded=0;fillColor=#d5e8d4;strokeColor=#82b366;" parent="1" vertex="1">
          <mxGeometry x="820" y="480" width="100" height="70" as="geometry" />
        </mxCell>
        <mxCell id="hyoDHbhCKNFFwaJ086cp-44" value="CSV" style="text;html=1;align=center;verticalAlign=middle;whiteSpace=wrap;rounded=0;fillColor=#fff2cc;strokeColor=#d6b656;" parent="1" vertex="1">
          <mxGeometry x="38" y="195" width="60" height="30" as="geometry" />
        </mxCell>
        <mxCell id="hyoDHbhCKNFFwaJ086cp-45" value="PostGresQL&lt;div&gt;Mysql/MariaDB&lt;/div&gt;&lt;div&gt;Oracle&lt;/div&gt;&lt;div&gt;SQLServer&lt;/div&gt;" style="text;html=1;align=center;verticalAlign=middle;whiteSpace=wrap;rounded=0;fillColor=#d5e8d4;strokeColor=#82b366;" parent="1" vertex="1">
          <mxGeometry x="18" y="414" width="100" height="70" as="geometry" />
        </mxCell>
      </root>
    </mxGraphModel>
  </diagram>
  <diagram id="wIiWHpG5BKTstrWFz4YU" name="Transform-focus">
    <mxGraphModel dx="1489" dy="894" grid="1" gridSize="10" guides="1" tooltips="1" connect="1" arrows="1" fold="1" page="1" pageScale="1" pageWidth="1169" pageHeight="827" math="0" shadow="0">
      <root>
        <mxCell id="0" />
        <mxCell id="1" parent="0" />
        <mxCell id="orNpdQaghWLhWnjfRsGY-1" value="Filtering on data&lt;div&gt;FilteringScript&lt;/div&gt;" style="rounded=0;whiteSpace=wrap;html=1;fillColor=#ffe6cc;strokeColor=#d79b00;fontSize=17;" vertex="1" parent="1">
          <mxGeometry x="200" y="90" width="200" height="110" as="geometry" />
        </mxCell>
        <mxCell id="ZcoRNf_3jnNcknbWyyy1-2" style="edgeStyle=orthogonalEdgeStyle;rounded=0;orthogonalLoop=1;jettySize=auto;html=1;strokeWidth=5;" edge="1" parent="1" source="orNpdQaghWLhWnjfRsGY-3" target="orNpdQaghWLhWnjfRsGY-9">
          <mxGeometry relative="1" as="geometry" />
        </mxCell>
        <mxCell id="orNpdQaghWLhWnjfRsGY-3" value="Mapping&lt;div&gt;MappingScript&lt;/div&gt;" style="rounded=0;whiteSpace=wrap;html=1;fillColor=#dae8fc;strokeColor=#6c8ebf;fontSize=17;" vertex="1" parent="1">
          <mxGeometry x="520" y="270" width="200" height="110" as="geometry" />
        </mxCell>
        <mxCell id="orNpdQaghWLhWnjfRsGY-9" value="Transform Data&lt;div&gt;T&lt;span style=&quot;background-color: transparent; color: light-dark(rgb(0, 0, 0), rgb(255, 255, 255));&quot;&gt;ransformerScript&lt;/span&gt;&lt;/div&gt;" style="rounded=0;whiteSpace=wrap;html=1;fillColor=#e1d5e7;strokeColor=#9673a6;fontSize=17;" vertex="1" parent="1">
          <mxGeometry x="800" y="530" width="200" height="110" as="geometry" />
        </mxCell>
        <mxCell id="ZcoRNf_3jnNcknbWyyy1-1" style="edgeStyle=orthogonalEdgeStyle;rounded=0;orthogonalLoop=1;jettySize=auto;html=1;entryX=0.5;entryY=0;entryDx=0;entryDy=0;strokeWidth=5;" edge="1" parent="1" source="orNpdQaghWLhWnjfRsGY-1" target="orNpdQaghWLhWnjfRsGY-3">
          <mxGeometry relative="1" as="geometry" />
        </mxCell>
      </root>
    </mxGraphModel>
  </diagram>
</mxfile>
